<svg xmlns="http://www.w3.org/2000/svg" width="37.231" height="33.276" viewBox="0 0 37.231 33.276"><g transform="translate(0 0)"><path d="M11.194,15.594A16.378,16.378,0,0,1,34.356,38.756a14.49,14.49,0,0,1-2.016,1.7c.224-.134.493-.269.717-.4,3.853-1.971,7.392-3.808,10.439,1.254a1.033,1.033,0,0,1-.358,1.389,1.013,1.013,0,0,1-1.389-.358c-2.061-3.45-4.794-2.016-7.8-.493s-6.138,3.181-9.587,1.568c-.538.045-1.12.09-1.658.09A16.346,16.346,0,0,1,11.194,15.594Zm16.979,7.482a3.337,3.337,0,0,1,.314-2.464,3.24,3.24,0,0,1,1.971-1.523l.134-.045h0a3.218,3.218,0,0,1,2.33.358h0a3.24,3.24,0,0,1,1.523,1.971l.045.134h0a3.267,3.267,0,0,1-2.33,3.853,3.337,3.337,0,0,1-2.464-.314,3.274,3.274,0,0,1-1.523-1.971Zm2.106-1.434a1.363,1.363,0,0,0-.134.941,1.41,1.41,0,0,0,.582.762,1.363,1.363,0,0,0,.941.134,1.41,1.41,0,0,0,.762-.582,1.326,1.326,0,0,0,.134-.941v-.045a1.282,1.282,0,0,0-.538-.717h0a1.326,1.326,0,0,0-.941-.134H31.04a1.15,1.15,0,0,0-.762.582ZM28.173,32.976a3.308,3.308,0,0,1,.314-2.464,3.24,3.24,0,0,1,1.971-1.523l.134-.045h0a3.218,3.218,0,0,1,2.33.358h0a3.24,3.24,0,0,1,1.523,1.971l.045.134v.045a3.267,3.267,0,0,1-2.33,3.853,3.349,3.349,0,0,1-2.464-.358,3.408,3.408,0,0,1-1.523-1.971ZM30.279,31.5a1.363,1.363,0,0,0-.134.941,1.41,1.41,0,0,0,.582.762,1.363,1.363,0,0,0,.941.134,1.41,1.41,0,0,0,.762-.582,1.363,1.363,0,0,0,.134-.941h0a1.282,1.282,0,0,0-.538-.717h0a1.326,1.326,0,0,0-.941-.134H31.04a1.249,1.249,0,0,0-.762.538ZM19.616,37.9a3.337,3.337,0,0,1,.314-2.464A3.24,3.24,0,0,1,21.9,33.917l.134-.045h0a3.218,3.218,0,0,1,2.33.358h0A3.24,3.24,0,0,1,25.888,36.2l.045.134h0a3.267,3.267,0,0,1-2.33,3.853,3.308,3.308,0,0,1-2.464-.314A3.12,3.12,0,0,1,19.616,37.9Zm2.106-1.434a1.363,1.363,0,0,0-.134.941,1.41,1.41,0,0,0,.582.762,1.363,1.363,0,0,0,.941.134,1.41,1.41,0,0,0,.762-.582,1.363,1.363,0,0,0,.134-.941h0a1.175,1.175,0,0,0-.582-.717h0a1.363,1.363,0,0,0-.941-.134h0a.985.985,0,0,0-.762.538ZM11.059,32.976a3.308,3.308,0,0,1,.314-2.464,3.24,3.24,0,0,1,1.971-1.523l.134-.045h0a3.218,3.218,0,0,1,2.33.358h0a3.24,3.24,0,0,1,1.523,1.971l.045.134v.045a3.267,3.267,0,0,1-2.33,3.853,3.308,3.308,0,0,1-2.464-.314,3.464,3.464,0,0,1-1.523-2.016ZM13.165,31.5a1.156,1.156,0,0,0-.134.941,1.41,1.41,0,0,0,.582.762,1.326,1.326,0,0,0,.941.134,1.41,1.41,0,0,0,.762-.582,1.156,1.156,0,0,0,.134-.941h0a1.175,1.175,0,0,0-.582-.717h0a1.363,1.363,0,0,0-.941-.134h0a1.249,1.249,0,0,0-.762.538Zm-2.106-8.423a3.337,3.337,0,0,1,.314-2.464,3.24,3.24,0,0,1,1.971-1.523l.134-.045h0a3.218,3.218,0,0,1,2.33.358h0a3.24,3.24,0,0,1,1.523,1.971l.045.134h0a3.267,3.267,0,0,1-2.33,3.853,3.308,3.308,0,0,1-2.464-.314,3.12,3.12,0,0,1-1.523-1.971Zm2.106-1.434a1.156,1.156,0,0,0-.134.941,1.41,1.41,0,0,0,.582.762,1.326,1.326,0,0,0,.941.134,1.41,1.41,0,0,0,.762-.582,1.131,1.131,0,0,0,.134-.941v-.045a1.175,1.175,0,0,0-.582-.717h0a1.363,1.363,0,0,0-.941-.134h0a1.15,1.15,0,0,0-.762.582Zm3.9,7.078a5.939,5.939,0,0,1,.582-4.48h0a6.091,6.091,0,0,1,3.584-2.778l.134-.045a5.955,5.955,0,0,1,7.123,4.211l.045.134a5.616,5.616,0,0,1-.627,4.346,6.091,6.091,0,0,1-3.584,2.778,5.939,5.939,0,0,1-4.48-.582h0a5.769,5.769,0,0,1-2.778-3.584Zm2.374-3.494a3.956,3.956,0,0,0-.4,2.957,3.8,3.8,0,0,0,1.792,2.33h0a3.956,3.956,0,0,0,2.957.4,3.8,3.8,0,0,0,2.33-1.792,3.956,3.956,0,0,0,.4-2.957h0a3.8,3.8,0,0,0-1.792-2.33,3.956,3.956,0,0,0-2.957-.4h0a3.676,3.676,0,0,0-2.33,1.792Zm.179-7.078a3.337,3.337,0,0,1,.314-2.464A3.24,3.24,0,0,1,21.9,14.16l.134-.045h0a3.218,3.218,0,0,1,2.33.358h0a3.24,3.24,0,0,1,1.523,1.971l.045.134h0a3.267,3.267,0,0,1-2.33,3.853,3.308,3.308,0,0,1-2.464-.314,3.24,3.24,0,0,1-1.523-1.971Zm2.106-1.478a1.363,1.363,0,0,0-.134.941,1.41,1.41,0,0,0,.582.762,1.363,1.363,0,0,0,.941.134,1.41,1.41,0,0,0,.762-.582,1.363,1.363,0,0,0,.134-.941h0a1.175,1.175,0,0,0-.582-.717h0a1.363,1.363,0,0,0-.941-.134h0a1.1,1.1,0,0,0-.762.538Zm1.03-3.853A14.319,14.319,0,0,0,12.627,37.277a14.277,14.277,0,0,0,20.25,0A14.336,14.336,0,0,0,22.752,12.816Z" transform="translate(-6.4 -10.8)" fill="#e32228"/></g></svg>