<svg xmlns="http://www.w3.org/2000/svg" width="170.4" height="80" viewBox="0 0 170.4 80"><g transform="translate(-0.2)"><path d="M143.3,71.5v8.3h-1.4V72.7h-1.2V71.5Z" fill="#fff" fill-rule="evenodd"/><path d="M24.7,71.5v8.3H23.2V72.7H22.1V71.5Z" fill="#fff" fill-rule="evenodd"/><path d="M159.7,78.1V74.2c0-.7-.5-2.2-1.3-2.5a7.789,7.789,0,0,0-2.1-.4,2.485,2.485,0,0,0-.8.1,6.213,6.213,0,0,0-1,.3c-.2.1-.8.4-.8.5a3.97,3.97,0,0,0,.7,1.2,3.057,3.057,0,0,1,2-.7,1.718,1.718,0,0,1,1.9,1.7.367.367,0,0,1-.1.3,8.375,8.375,0,0,0-1-.2c-1.5,0-3.9.8-3.9,3a2.39,2.39,0,0,0,2.4,2.5,4.049,4.049,0,0,0,2.7-1.1c.1.5.8.9,1.3,1h.7v-.7A1.1,1.1,0,0,1,159.7,78.1Zm-1.6-.3c-.8.7-1.2,1-1.9,1-.8,0-1.5-.3-1.5-1.3,0-1.5,1.6-1.8,2.4-1.8.1,0,.6.1.9.1l.1-.1Z" fill="#fff" fill-rule="evenodd"/><path d="M152,72.1a6.07,6.07,0,0,1-.7,1,3.29,3.29,0,0,0-2-.6c-2.1,0-2.6,1.8-2.6,3.1,0,1.8.8,3,2.7,3a4.564,4.564,0,0,0,2.1-.8l.6,1.2a7,7,0,0,1-3,.8,4.046,4.046,0,0,1-3.9-3.2c0-.1-.1-.4-.1-.5V74.9a4,4,0,0,1,4.2-3.9,15.326,15.326,0,0,1,2.7,1.1Z" fill="#fff" fill-rule="evenodd"/><path d="M140,71.4l-.5,1.5a9.254,9.254,0,0,0-1-.3,2.127,2.127,0,0,0-1.9,1.9v5.3H135V71.4h1.5a4.868,4.868,0,0,0,.1,1.2,2.566,2.566,0,0,1,2.3-1.3,4.485,4.485,0,0,1,1.1.1Z" fill="#fff" fill-rule="evenodd"/><path d="M114.5,71.5a11.215,11.215,0,0,0-.5,1.3,9.254,9.254,0,0,0-1-.3,2.127,2.127,0,0,0-1.9,1.9v5.3h-1.5V71.3h1.5a4.869,4.869,0,0,0,.1,1.2,2.566,2.566,0,0,1,2.3-1.3c.3.1,1,.3,1,.3Z" fill="#fff" fill-rule="evenodd"/><path d="M104.1,71.3c-2.5,0-3.8,2.1-3.8,4.3,0,2.1,1,4.4,3.8,4.4s3.8-2.3,3.8-4.4C107.8,73.5,107,71.3,104.1,71.3Zm-.1,7.4c-1.9,0-2.1-1.9-2.1-3s.3-3.1,2.2-3.1,2.2,1.9,2.2,3C106.2,76.8,105.9,78.7,104,78.7Z" fill="#fff" fill-rule="evenodd"/><path d="M77.9,71.3c1,0,2,1.5,2,2.4v6.1H78.4V74.3c-.1-1.3-.8-1.8-1.7-1.8-.2,0-.3-.1-.4,0-.4.1-1.6.6-1.6,1.1v6.2H73.2V71.4h1c.1.3.3.7.4,1A3.126,3.126,0,0,1,77,71.2a3.085,3.085,0,0,0,.9.1Z" fill="#fff" fill-rule="evenodd"/><path d="M70.9,77.8V73.9a5.388,5.388,0,0,0-.3-1h0c-.4-1.4-2.2-1.6-3.1-1.6a6.083,6.083,0,0,0-2.7.8,2.925,2.925,0,0,0,.7,1.2,2.737,2.737,0,0,1,2-.7,1.7,1.7,0,0,1,1.9,1.8c0,.2,0,.2-.1.2a8.915,8.915,0,0,0-1.1-.2c-1.5,0-3.9.8-3.9,3a2.454,2.454,0,0,0,2.4,2.5c.6,0,2.4-.4,2.7-1.1a1.481,1.481,0,0,0,1.3,1h.7v-.7C71,78.8,71.1,78.2,70.9,77.8Zm-1.5-.1a2.56,2.56,0,0,1-2,1c-.8,0-1.4-.2-1.4-1.2,0-1.5,1.5-1.9,2.4-1.9a2.814,2.814,0,0,1,.8.1c.1.1.1.1.2-.1Z" fill="#fff" fill-rule="evenodd"/><path d="M40.5,75.8a3.445,3.445,0,0,0,.1-.9c0-2.3-1.5-3.6-3.8-3.6-2.5,0-3.9,2.2-3.9,4.4,0,2.1,1.3,4.3,3.9,4.3.7,0,2.6-.4,3-1a3.592,3.592,0,0,0-.7-1,3.746,3.746,0,0,1-2.1.7,2.628,2.628,0,0,1-2.7-2.5v-.5h6.2Zm-6-1.4a2.221,2.221,0,0,1,2.3-1.8,1.952,1.952,0,0,1,.7.1c.5.1,1.5,1.1,1.5,1.6v.3H34.5Z" fill="#fff" fill-rule="evenodd"/><path d="M19,71.5a2.047,2.047,0,0,1,.8.8,4.365,4.365,0,0,1,.5,1.5v6.1H18.8V74.4c-.2-1.4-.7-1.8-1.7-1.8a2.311,2.311,0,0,0-2,1.1v6.2H13.6V71.5h1c.1.3.3.7.4,1a3.126,3.126,0,0,1,2.4-1.2,4.4,4.4,0,0,1,1.6.2Z" fill="#fff" fill-rule="evenodd"/><path d="M29.1,71.5h2.3v1.2H29.1v4.7c.3,1.1.7,1.4,1.5,1.4a10.338,10.338,0,0,0,1.2-.3,5.853,5.853,0,0,1,.2,1.3c-.7.1-1.9.2-2.1.2a2.5,2.5,0,0,1-2.4-2.4v-5h-1V71.4h1V69.6a8.8,8.8,0,0,1,1.5-.5l.1,2.4Z" fill="#fff" fill-rule="evenodd"/><path d="M5,68.4v7.8c.2,1.8,1.2,2.5,2.4,2.5a2.564,2.564,0,0,0,2.5-1.9V68.4h1.6v8.5C11.2,79.5,9,80,7.5,80a3.8,3.8,0,0,1-3.7-2,8.915,8.915,0,0,1-.2-1.1V68.4Z" fill="#fff" fill-rule="evenodd"/><path d="M143.5,69.2a.923.923,0,0,1-.9,1,.893.893,0,0,1-.9-.9.8.8,0,0,1,.9-.9c.6-.1.9.2.9.8Z" fill="#fff" fill-rule="evenodd"/><path d="M25,69.2a1,1,0,0,1-1,1,.9.9,0,0,1,0-1.8.8.8,0,0,1,1,.8Z" fill="#fff" fill-rule="evenodd"/><path d="M60.8,73.5l.1-.1a2.548,2.548,0,0,0,1.6-2.3h0c0-2.3-2.1-2.8-3.7-2.8H56V79.9h3.8c1,0,3.1-1,3.3-2.4a4.4,4.4,0,0,0,.2-1A2.969,2.969,0,0,0,60.8,73.5Zm-3.2-3.9h1c.9,0,2.3,0,2.3,1.5,0,1.6-1.3,1.8-2.4,1.8h-.9V69.6Zm1,8.9a4.142,4.142,0,0,1-1-.1V74.1a4.744,4.744,0,0,0,1.2,0c1.5,0,2.7.3,2.7,2.1C61.5,78.2,60,78.5,58.6,78.5Z" fill="#fff" fill-rule="evenodd"/><path d="M123.6,68.2h-.4c-1.5,3.9-3.1,7.8-4.6,11.6h1.8a11.725,11.725,0,0,1,.9-2.4h4.1a22.5,22.5,0,0,1,.8,2.4H128Zm-2,8,1.7-4.8,1.5,4.8Z" fill="#fff" fill-rule="evenodd"/><path d="M133.9,68.3c-.1.1-.4,1.1-.5,1.1-.2,0-.6-.1-.8-.1a1.68,1.68,0,0,0-1.6,1.8c0,.1.1.2.1.4h1.7v1.2h-1.7v7.1h-1.5V72.7h-1.2V71.5h1.2c-.1-2,1-3.5,2.8-3.5a5.556,5.556,0,0,1,1.5.3Z" fill="#fff" fill-rule="evenodd"/><path d="M99.8,68.3l-.4,1.1a2.485,2.485,0,0,0-.8-.1A1.71,1.71,0,0,0,97,70.7v.8h1.8v1.2H97v7.1H95.5V72.7H94.3V71.5h1.2c0-2.1,1-3.5,2.8-3.5a4.432,4.432,0,0,1,1.5.3Z" fill="#fff" fill-rule="evenodd"/><path d="M83.5,68v7.2l3.1-3.8h1.8l-2.6,3.1L89,79.7H87.4l-2.6-4.2a15.934,15.934,0,0,1-1.3,1.3v2.8H82V68Z" fill="#fff" fill-rule="evenodd"/><path d="M47.4,68v3.8a3.608,3.608,0,0,0-1.9-.5c-2.6,0-3.9,2.7-3.9,4.5s.9,4.1,3.6,4.1a3.2,3.2,0,0,0,2.2-.7,1.087,1.087,0,0,1,.1.5H49V68Zm0,10a2.262,2.262,0,0,1-1.5.7c-2.1,0-2.6-1.5-2.6-3,0-1.4.7-3.1,2.5-3.1a1.7,1.7,0,0,1,1.6.8Z" fill="#fff" fill-rule="evenodd"/><path d="M98.6,20H95.9L70.6,57.4h6.8l4.8-7.3H98l1.5,7.3h8.2ZM85.7,44.5l8-12.2,3,12.2Z" fill="#fff" fill-rule="evenodd"/><path d="M62,37.2c-.1,0-.2,0-.2-.1,5.5-1.8,8.7-5.2,8.7-9.8,0-4.2-2.5-6.8-8-7.4H46.2L38.4,57.4H53.8c.8,0,3.3-.5,3.6-.5,8-1.7,11.6-7.2,11.6-13.1C69,40.2,66.1,37.8,62,37.2ZM51.1,33.5c.1-.6.3-1.3.4-1.9s.3-1.3.4-1.9.3-1.3.4-1.9.2-.9.3-1.9c.1-1.1.1-1.1.7-1.1l4.5-.1c1.9,0,5,1,5,3.8,0,.1-.2,1.3-.3,1.9a6.456,6.456,0,0,1-3,4.2A19.5,19.5,0,0,1,56,36.4H50.6C50.7,35.5,50.9,34.5,51.1,33.5ZM61.4,46.9a6.474,6.474,0,0,1-1.1,1.9c-1.8,2.3-5.2,4.1-7.3,4.1H46.9c1-4.4,1.8-9,2.8-13.3a.215.215,0,0,1,.2-.2l4.6-.1c.1,0,1.3.1,2,.2h0c3.6.8,5.1,2.8,5.1,5.6C61.6,45.1,61.5,46.3,61.4,46.9Z" fill="#fff" fill-rule="evenodd"/><path d="M13.2,20c-.6,3.2-1.3,6.2-1.9,9.3-.5,2.2-1,4.6-1.4,6.9-.6,3.4-1.6,6.7-1.6,10.1,0,3.7,1.2,7,6,7,4.6,0,9.1-3,10.6-9.2,1.9-8,3.5-16,5.1-24h7v.2c-1.9,8.8-3.8,17.6-5.8,26.3a11.782,11.782,0,0,1-2.4,4.3A17.072,17.072,0,0,1,16.1,58a12.543,12.543,0,0,1-1.5.2H11c-.7-.1-1.5-.2-2.2-.3a15.984,15.984,0,0,1-2.1-.5C2,56.2.2,51.8.2,48.4V46.9a6.15,6.15,0,0,0,.1-1.4Q3.15,32.75,5.7,20Z" fill="#fff" fill-rule="evenodd"/><path d="M138.8,57.1c-1,.1-2.8.4-3,.4H120.7L130.9,9.7c5.3,10.4,10.7,21,15.9,31.5a20.652,20.652,0,0,1,1.8,7.1c-.1,5.3-3.8,7.8-9.8,8.8Z" fill="#fff" fill-rule="evenodd"/><path d="M160.4,47.8c-3.1-6-6.2-12.1-9.2-18-1.7-3.3-3.4-6.8-5.1-10.1-.5-1.2-1.2-2.2-1.6-3.3-.5-1.2-1.8-4.9-1.8-6.7V8.5a12.505,12.505,0,0,1,.3-1.9C144.8.8,151.5.3,155.5,0h15.1Z" fill="#fff" fill-rule="evenodd"/></g></svg>